<?xml version="1.0" encoding="utf-8"?>
<!-- Svg Vector Icons : http://www.onlinewebfonts.com/icon -->
<!DOCTYPE svg PUBLIC "-//W3C//DTD SVG 1.1//EN" "http://www.w3.org/Graphics/SVG/1.1/DTD/svg11.dtd">
<svg version="1.1" xmlns="http://www.w3.org/2000/svg" xmlns:xlink="http://www.w3.org/1999/xlink" x="0px" y="0px" viewBox="0 0 256 256" enable-background="new 0 0 256 256" xml:space="preserve">
<metadata> Svg Vector Icons : http://www.onlinewebfonts.com/icon </metadata>
<g><g><path fill="#000000" d="M227.1,69c-10.4,0-18.9,8.5-18.9,18.9c0,2.5,0.5,5,1.4,7.2l-56,52.1c-3-2-6.6-3.2-10.5-3.2c-2,0-3.9,0.3-5.7,0.9l-17.8-22.5c1.3-2.6,2.1-5.6,2.1-8.6c0-10.4-8.5-18.9-18.9-18.9c-10.4,0-18.9,8.5-18.9,18.9c0,1,0.1,1.9,0.2,2.9l-45,35.4c-2.9-1.9-6.4-2.9-10.1-2.9c-10.5,0-18.9,8.5-18.9,18.9c0,10.5,8.5,18.9,18.9,18.9c10.4,0,18.9-8.5,18.9-18.9c0-1.9-0.3-3.8-0.8-5.6l43.6-34.2c0.1,0.1,0.2,0.2,0.4,0.3c3.3,2.7,7.6,4.2,11.8,4.2c2.5,0,4.9-0.5,7.2-1.4l17.1,21.6c-1.9,3-2.9,6.4-2.9,10c0,10.5,8.5,18.9,18.9,18.9c10.4,0,18.9-8.5,18.9-18.9c0-1.8-0.2-3.4-0.7-5.1l57.1-53.2c2.6,1.3,5.5,2.1,8.6,2.1c10.4,0,18.9-8.5,18.9-18.9S237.5,69,227.1,69z M28.9,173.9c-3.2,0-5.8-2.6-5.8-5.8c0-3.2,2.6-5.8,5.8-5.8c3.2,0,5.8,2.6,5.8,5.8S32.1,173.9,28.9,173.9z M99.1,118.4c-1.4-1.1-2.2-2.8-2.2-4.6c0-3.2,2.6-5.8,5.8-5.8c3.2,0,5.8,2.6,5.8,5.8c0,1.5-0.6,3-1.7,4.1c0,0,0,0,0,0C104.6,120.3,100.5,119.5,99.1,118.4z M143.1,168.8c-3.2,0-5.8-2.6-5.8-5.8c0-1.8,0.8-3.4,2.1-4.5c0.1-0.1,0.2-0.1,0.3-0.2c0,0,0.1-0.1,0.1-0.1c0.7-0.5,1.8-1,3.3-1c3.2,0,5.8,2.6,5.8,5.8S146.3,168.8,143.1,168.8z M227.1,93.8c-3.2,0-5.8-2.6-5.8-5.8c0-3.2,2.6-5.8,5.8-5.8c3.2,0,5.8,2.6,5.8,5.8C232.9,91.1,230.3,93.8,227.1,93.8z"/></g></g>
</svg>